<?xml version="1.0" encoding="utf-8"?>
<!-- Generator: Adobe Illustrator 15.0.2, SVG Export Plug-In . SVG Version: 6.00 Build 0)  -->
<!DOCTYPE svg PUBLIC "-//W3C//DTD SVG 1.1//EN" "http://www.w3.org/Graphics/SVG/1.1/DTD/svg11.dtd">
<svg version="1.1" id="Layer_1" xmlns="http://www.w3.org/2000/svg" xmlns:xlink="http://www.w3.org/1999/xlink" x="0px" y="0px"
	 width="400px" height="400px" viewBox="0 0 400 400" enable-background="new 0 0 400 400" xml:space="preserve">
<circle cx="200.5" cy="200" r="200"/>
<g enable-background="new    ">
	<path fill="#FFFFFF" d="M160.408,292.098v3.166h-10.64v5.277h9.556v2.995h-9.556v5.335h10.982v3.166h-14.348v-19.939H160.408
		L160.408,292.098z"/>
</g>
<g enable-background="new    ">
	<path fill="#FFFFFF" d="M176.867,312.037l-4.907-7.502h-0.143l-4.906,7.502h-4.193l6.846-10.24l-6.361-9.699h4.165l4.45,6.732
		h0.143l4.45-6.732h4.165l-6.361,9.699l6.846,10.24H176.867z"/>
</g>
<g enable-background="new    ">
	<path fill="#FFFFFF" d="M197.719,293.838c1.388,1.16,2.083,2.948,2.083,5.362c0,2.416-0.709,4.185-2.125,5.307
		s-3.589,1.683-6.518,1.683h-3.537v5.849h-3.366V292.1h6.846C194.125,292.098,196.331,292.678,197.719,293.838z M195.337,302.066
		c0.675-0.713,1.013-1.758,1.013-3.137c0-1.38-0.428-2.354-1.284-2.925c-0.856-0.569-2.196-0.854-4.022-0.854h-3.423v7.985h3.908
		C193.392,303.137,194.662,302.779,195.337,302.066z"/>
</g>
<g enable-background="new    ">
	<path fill="#FFFFFF" d="M217.771,292.098v3.166h-10.641v5.277h9.557v2.995h-9.557v5.335h10.982v3.166h-14.35v-19.939H217.771
		L217.771,292.098z"/>
</g>
<g enable-background="new    ">
	<path fill="#FFFFFF" d="M238.338,298.573c0,3.29-1.436,5.362-4.307,6.219l5.221,7.245h-4.279l-4.764-6.703h-4.422v6.703h-3.365
		v-19.939h7.416c3.043,0,5.221,0.514,6.532,1.541C237.684,294.665,238.338,296.311,238.338,298.573z M233.859,301.396
		c0.686-0.59,1.027-1.535,1.027-2.838s-0.353-2.197-1.056-2.683c-0.704-0.483-1.959-0.728-3.767-0.728h-4.278v7.132h4.192
		C231.882,302.281,233.176,301.986,233.859,301.396z"/>
</g>
<g enable-background="new    ">
	<path fill="#FFFFFF" d="M250.434,295.18v16.857h-3.365V295.18h-6.049v-3.082h15.462v3.082H250.434z"/>
</g>
<path id="user-8-icon" fill="#FFFFFF" d="M266.783,203.725c-25.838-5.959-49.889-11.18-38.241-33.14
	c35.455-66.844,9.397-102.591-28.042-102.591c-38.178,0-63.594,37.119-28.042,102.591c11.997,22.093-12.959,27.307-38.241,33.14
	c-25.827,5.955-23.84,19.572-23.84,44.281h78.763l5.289-27.16h12.141l5.289,27.16h78.765
	C290.623,223.297,292.608,209.68,266.783,203.725z M204.939,214.029h-8.747l-6.837-14.322h22.494L204.939,214.029z"/>
</svg>
